<svg width="31" height="24" viewBox="0 0 31 24" fill="none" xmlns="http://www.w3.org/2000/svg">
<rect x="0.25" y="0.25" width="30" height="23" rx="11.5" fill="#F5F7F9"/>
<path d="M14.5488 15.3594V16.25H8.96484V15.4707L11.7598 12.3594C12.1035 11.9766 12.3691 11.6523 12.5566 11.3867C12.748 11.1172 12.8809 10.877 12.9551 10.666C13.0332 10.4512 13.0723 10.2324 13.0723 10.0098C13.0723 9.72852 13.0137 9.47461 12.8965 9.24805C12.7832 9.01758 12.6152 8.83398 12.3926 8.69727C12.1699 8.56055 11.9004 8.49219 11.584 8.49219C11.2051 8.49219 10.8887 8.56641 10.6348 8.71484C10.3848 8.85938 10.1973 9.0625 10.0723 9.32422C9.94727 9.58594 9.88477 9.88672 9.88477 10.2266H8.80078C8.80078 9.74609 8.90625 9.30664 9.11719 8.9082C9.32812 8.50977 9.64062 8.19336 10.0547 7.95898C10.4688 7.7207 10.9785 7.60156 11.584 7.60156C12.123 7.60156 12.584 7.69727 12.9668 7.88867C13.3496 8.07617 13.6426 8.3418 13.8457 8.68555C14.0527 9.02539 14.1562 9.42383 14.1562 9.88086C14.1562 10.1309 14.1133 10.3848 14.0273 10.6426C13.9453 10.8965 13.8301 11.1504 13.6816 11.4043C13.5371 11.6582 13.3672 11.9082 13.1719 12.1543C12.9805 12.4004 12.7754 12.6426 12.5566 12.8809L10.2715 15.3594H14.5488ZM21.3047 11.6738V12.6934H15.457V11.6738H21.3047ZM18.9258 9.18359V15.3945H17.8418V9.18359H18.9258Z" fill="#585858"/>
</svg>
